<svg aria-hidden="true" style="position:absolute;width:0;height:0;overflow:hidden" xmlns="http://www.w3.org/2000/svg">
  <defs>
    <symbol id="icon-easy-order" viewBox="0 0 32 32">
      <path fill="none" stroke="#f880c8" style="stroke:var(--color1, #f880c8)" stroke-linejoin="round" stroke-linecap="round" stroke-width="1.548" d="M19.016 4.8C17.595 3.376 16.883 2.667 16 2.667s-1.595.711-3.016 2.133c-.853.853-1.699 1.248-2.915 1.248-1.061 0-2.573-.205-3.403.631-.824.831-.619 2.336-.619 3.391 0 1.216-.396 2.061-1.249 2.915-1.421 1.421-2.132 2.133-2.132 3.016s.711 1.595 2.133 3.016c.955.956 1.248 1.573 1.248 2.915 0 1.061-.205 2.573.631 3.403.831.823 2.336.619 3.391.619 1.295 0 1.92.253 2.844 1.177.787.787 1.841 2.204 3.087 2.204s2.3-1.417 3.087-2.204c.925-.924 1.549-1.177 2.844-1.177 1.055 0 2.56.205 3.391-.619m0-.002c.836-.829.631-2.341.631-3.403 0-1.341.293-1.959 1.248-2.915 1.423-1.421 2.133-2.133 2.133-3.016s-.711-1.595-2.132-3.016m-1.88 12.35h.012"/>
      <path fill="none" stroke="#f880c8" style="stroke:var(--color1, #f880c8)" stroke-linejoin="round" stroke-linecap="round" stroke-width="1.548" d="m11.334 12.667 4.667 4.667 12-13.333"/>
    </symbol>
    <symbol id="icon-fast-delivery" viewBox="0 0 33 32">
      <path fill="none" stroke="#f880c8" style="stroke:var(--color1, #f880c8)" stroke-linejoin="round" stroke-linecap="round" stroke-width="1.548" d="M6.925 10.667h5.333m1.334 10.666c0 .525-.103 1.045-.305 1.531s-.496.926-.867 1.298a3.996 3.996 0 0 1-2.829 1.171 4.005 4.005 0 0 1-2.829-1.171 3.996 3.996 0 0 1-1.171-2.829m-2.666 0c0-4.243 2.985-6.667 6.667-6.667s6.667 2.424 6.667 6.667H2.926zM26.925 25.333a2.667 2.667 0 1 0 0-5.334 2.667 2.667 0 0 0 0 5.334z"/>
      <path fill="none" stroke="#f880c8" style="stroke:var(--color1, #f880c8)" stroke-linejoin="round" stroke-linecap="round" stroke-width="1.548" d="M21.591 10.667c1.777.851 5.333 4.232 5.333 9.333M21.578 6.667h.729c1.312 0 2.517.773 3.125 2.004.42.853 0 1.996-1.195 1.996h-2.66m.001-4v4m0-4h-4.061m4.061 4c0 2.551-.283 10.667-5.32 10.667h7.555"/>
    </symbol>
    <symbol id="icon-premium-quality" viewBox="0 0 32 32">
      <path fill="none" stroke="#f880c8" style="stroke:var(--color1, #f880c8)" stroke-linejoin="round" stroke-linecap="round" stroke-width="1.548" d="M5.333 18.667h3.193c.392 0 .779.088 1.129.259l2.723 1.317c.351.169.737.257 1.131.257h1.389c1.344 0 2.435 1.055 2.435 2.356a.117.117 0 0 1-.088.113l-3.388.937a2.602 2.602 0 0 1-1.824-.165l-2.911-1.408m2.072-18.93c1.965-1.219 3.683-.728 4.713.055.423.32.635.48.759.48s.336-.16.759-.48c1.031-.783 2.747-1.273 4.713-.055 2.581 1.6 3.165 6.875-2.787 11.325C18.216 15.576 17.65 16 16.666 16s-1.551-.424-2.684-1.272c-5.953-4.451-5.369-9.727-2.788-11.325z"/>
      <path fill="none" stroke="#f880c8" style="stroke:var(--color1, #f880c8)" stroke-linejoin="round" stroke-linecap="round" stroke-width="1.548" d="m17.333 22 6.124-1.881c.533-.164 1.104-.155 1.632.026s.985.523 1.307.978c.492.68.292 1.656-.425 2.069l-10.02 5.783a2.67 2.67 0 0 1-2.091.25l-8.527-2.531"/>
    </symbol>
    <symbol id="icon-your-own-design" viewBox="0 0 32 32">
      <path fill="none" stroke="#f880c8" style="stroke:var(--color1, #f880c8)" stroke-linejoin="round" stroke-linecap="round" stroke-width="1.548" d="m18.568 17.037-2.865-2.865c-.389-.391-.585-.585-.796-.689a1.433 1.433 0 0 0-1.272 0c-.211.104-.405.299-.796.689s-.585.587-.689.796c-.2.401-.2.872 0 1.272.104.211.299.407.689.797l2.865 2.864m2.864-2.864 8.593 8.593c.391.389.585.585.689.796.2.4.2.871 0 1.272-.104.209-.299.405-.689.796s-.587.585-.796.689c-.401.2-.872.2-1.272 0-.211-.104-.407-.299-.797-.689l-8.592-8.593m2.864-2.864-2.864 2.864m6.963-17.234.393 1.063c.515 1.392.773 2.088 1.28 2.596.509.508 1.205.767 2.597 1.281L28 8l-1.063.393c-1.392.515-2.088.773-2.596 1.28-.508.509-.767 1.205-1.281 2.597l-.393 1.063-.393-1.063c-.515-1.392-.773-2.088-1.28-2.596-.509-.508-1.205-.767-2.597-1.281L17.334 8l1.063-.393c1.392-.515 2.088-.773 2.596-1.28.508-.509.767-1.205 1.281-2.597l.393-1.063zM8 5.333l.295.796c.387 1.045.58 1.568.96 1.948.381.381.904.575 1.949.96l.796.296-.796.295c-1.045.387-1.568.58-1.948.96-.381.381-.575.904-.96 1.949L8 13.333l-.295-.796c-.387-1.045-.58-1.568-.96-1.948-.381-.381-.904-.575-1.949-.96L4 9.333l.796-.295c1.045-.387 1.568-.58 1.948-.96.381-.381.575-.904.96-1.949L8 5.333z"/>
    </symbol>
    <symbol id="icon-basket-done" viewBox="0 0 32 32">
      <path stroke-linejoin="round" stroke-linecap="round" stroke-width="2" d="M14.737 29.333h-1.741c-2.966 0-4.449 0-5.477-.894-1.029-.893-1.281-2.4-1.785-5.415l-1.521-9.093c-.23-1.374-.345-2.061.024-2.512.368-.451 1.045-.451 2.397-.451h18.73c1.353 0 2.03 0 2.397.451.369.451.253 1.137.024 2.513l-.671 4.001M17.895 26.8s.947.792 2.526 2.533l7.579-7.6m-5.053-10.766c0-1.848-.732-3.62-2.035-4.926S17.842 4 15.999 4s-3.61.734-4.912 2.041a6.976 6.976 0 0 0-2.035 4.926"/>
    </symbol>
 <symbol id="icon-login" viewBox="0 0 31 32">
<path d="M13.184 10.496c-0.119 0.117-0.213 0.257-0.277 0.41s-0.097 0.319-0.097 0.486c0 0.167 0.033 0.332 0.097 0.486s0.158 0.293 0.277 0.41l2.432 2.432h-11.776c-0.704 0-1.28 0.576-1.28 1.28s0.576 1.28 1.28 1.28h11.776l-2.432 2.432c-0.119 0.117-0.213 0.257-0.277 0.41s-0.097 0.319-0.097 0.485 0.033 0.332 0.097 0.485c0.064 0.154 0.158 0.293 0.277 0.41 0.499 0.499 1.293 0.499 1.792 0l4.595-4.595c0.119-0.118 0.213-0.259 0.277-0.414s0.097-0.321 0.097-0.488-0.033-0.334-0.097-0.488c-0.064-0.155-0.158-0.296-0.277-0.414l-4.595-4.608c-0.117-0.119-0.257-0.213-0.411-0.277s-0.319-0.097-0.486-0.097-0.332 0.033-0.486 0.097c-0.154 0.064-0.293 0.158-0.411 0.277zM25.6 24.96h-8.96c-0.704 0-1.28 0.576-1.28 1.28s0.576 1.28 1.28 1.28h8.96c1.408 0 2.56-1.152 2.56-2.56v-17.92c0-1.408-1.152-2.56-2.56-2.56h-8.96c-0.704 0-1.28 0.576-1.28 1.28s0.576 1.28 1.28 1.28h8.96v17.92z"></path>
</symbol>
    <symbol id="icon-basket-remove" viewBox="0 0 32 32">
      <path stroke-linejoin="round" stroke-linecap="round" stroke-width="2" d="m27.329 16.667.457-2.736c.23-1.376.345-2.062-.024-2.513-.367-.451-1.045-.451-2.397-.451H6.635c-1.353 0-2.03 0-2.397.451-.369.451-.253 1.137-.024 2.513l1.521 9.095c.504 3.015.755 4.521 1.785 5.415 1.028.893 2.511.893 5.477.893h2.372m3.789-8.867 4.421 4.433m0 0L28 29.333M23.579 24.9l-4.421 4.433m4.421-4.433L28 20.467m-5.053-9.5c0-1.848-.732-3.62-2.035-4.926S17.842 4 15.999 4c-1.843 0-3.61.734-4.912 2.041S9.052 9.12 9.052 10.967"/>
    </symbol>
    <symbol id="icon-burger-menu" viewBox="0 0 32 32">
      <path stroke-linejoin="round" stroke-linecap="round" stroke-width="3.333" d="M4 8h24M4 16h24M4 24h24"/>
    </symbol>
    <symbol id="icon-checkmark" viewBox="0 0 32 32">
      <path stroke-linejoin="round" stroke-linecap="round" stroke-width="2.667" d="M26 8 12 24l-6-6"/>
    </symbol>
    <symbol id="icon-cross" viewBox="0 0 32 32">
      <path d="M26.354 24.845a1.06 1.06 0 0 1 .312.754 1.076 1.076 0 0 1-.312.754 1.06 1.06 0 0 1-.754.312 1.076 1.076 0 0 1-.754-.312l-8.845-8.846-8.845 8.846a1.069 1.069 0 0 1-1.51-1.51l8.846-8.845-8.846-8.845a1.069 1.069 0 0 1 1.51-1.51l8.845 8.846 8.845-8.846a1.069 1.069 0 0 1 1.51 1.51l-8.846 8.845 8.846 8.845z"/>
    </symbol>
    <symbol id="icon-fullheart" viewBox="0 0 32 32">
      <path stroke-linejoin="round" stroke-linecap="round" stroke-width="2" d="M16.085 28.608 3.573 17.273c-6.8-6.8 3.195-19.858 12.512-9.294 9.317-10.565 19.269 2.537 12.514 9.294L16.085 28.608z"/>
    </symbol>

 
    <symbol id="icon-minus" viewBox="0 0 32 32" >
      <path d="M24 17.331H8a1.335 1.335 0 0 1-.943-2.277c.251-.25.589-.391.943-.391h16a1.335 1.335 0 0 1 .943 2.277c-.251.25-.589.391-.943.391z"/>
    </symbol>
    <symbol id="icon-plus" viewBox="0 0 32 32">
      <path d="M24 17.331h-6.667v6.667a1.335 1.335 0 0 1-2.277.943 1.335 1.335 0 0 1-.391-.943v-6.667H7.998a1.335 1.335 0 0 1-.943-2.277c.251-.25.589-.391.943-.391h6.667V7.996a1.335 1.335 0 0 1 2.277-.943c.25.251.391.589.391.943v6.667H24a1.335 1.335 0 0 1 .943 2.277c-.251.25-.589.391-.943.391z"/>
    </symbol>
 
    <symbol id="icon-basket" viewBox="0 0 32 32">
<path d="M8.4414 10.6666H23.5601C23.9446 10.6666 24.3245 10.7497 24.6739 10.9102C25.0232 11.0708 25.3338 11.305 25.5841 11.5968C25.8345 11.8886 26.0188 12.231 26.1245 12.6007C26.2301 12.9704 26.2545 13.3586 26.1961 13.7386L24.5227 24.608C24.3775 25.5526 23.8988 26.4139 23.1734 27.0361C22.448 27.6583 21.5238 28.0002 20.5681 28H11.4321C10.4766 27.9999 9.55271 27.6579 8.82757 27.0357C8.10244 26.4135 7.62396 25.5523 7.47873 24.608L5.8054 13.7386C5.74696 13.3586 5.77138 12.9704 5.87701 12.6007C5.98263 12.231 6.16695 11.8886 6.41733 11.5968C6.66771 11.305 6.97822 11.0708 7.32759 10.9102C7.67696 10.7497 8.05691 10.6666 8.4414 10.6666Z" stroke="#100F0F" stroke-width="2" stroke-linecap="round" stroke-linejoin="round"/>
<path d="M12 14.6667V8C12 6.93913 12.4214 5.92172 13.1716 5.17157C13.9217 4.42143 14.9391 4 16 4C17.0609 4 18.0783 4.42143 18.8284 5.17157C19.5786 5.92172 20 6.93913 20 8V14.6667" stroke="#100F0F" stroke-width="2" stroke-linecap="round" stroke-linejoin="round"/>
</symbol>
<symbol id="icon-instagram" viewBox="0 0 31 32">

  <path d="M5.33301 11.1668C5.33301 9.75234 5.89491 8.39579 6.8951 7.39559C7.8953 6.3954 9.25185 5.8335 10.6663 5.8335H21.333C22.7475 5.8335 24.104 6.3954 25.1042 7.39559C26.1044 8.39579 26.6663 9.75234 26.6663 11.1668V21.8335C26.6663 23.248 26.1044 24.6045 25.1042 25.6047C24.104 26.6049 22.7475 27.1668 21.333 27.1668H10.6663C9.25185 27.1668 7.8953 26.6049 6.8951 25.6047C5.89491 24.6045 5.33301 23.248 5.33301 21.8335V11.1668Z" stroke="#100F0F" stroke-width="2" stroke-linecap="round" stroke-linejoin="round"/>
  <path d="M22 10.5V10.5133M12 16.5C12 17.5609 12.4214 18.5783 13.1716 19.3284C13.9217 20.0786 14.9391 20.5 16 20.5C17.0609 20.5 18.0783 20.0786 18.8284 19.3284C19.5786 18.5783 20 17.5609 20 16.5C20 15.4391 19.5786 14.4217 18.8284 13.6716C18.0783 12.9214 17.0609 12.5 16 12.5C14.9391 12.5 13.9217 12.9214 13.1716 13.6716C12.4214 14.4217 12 15.4391 12 16.5Z" stroke="#100F0F" stroke-width="2" stroke-linecap="round" stroke-linejoin="round"/>

</symbol>
<symbol id="icon-heart" viewBox="0 0 32 32">
  <path d="M25.9998 16.7627L15.9997 26.6667L5.99975 16.7627C5.34016 16.1208 4.82061 15.3493 4.47381 14.4968C4.12702 13.6443 3.9605 12.7293 3.98473 11.8092C4.00897 10.8892 4.22343 9.98417 4.61463 9.15111C5.00582 8.31804 5.56526 7.575 6.25773 6.96876C6.9502 6.36253 7.76069 5.90624 8.63817 5.62863C9.51564 5.35102 10.4411 5.2581 11.3562 5.35573C12.2714 5.45335 13.1564 5.7394 13.9556 6.19587C14.7548 6.65233 15.4507 7.26933 15.9997 8.00799C16.5511 7.27469 17.2479 6.66309 18.0466 6.21146C18.8452 5.75984 19.7284 5.47792 20.641 5.38335C21.5536 5.28878 22.4759 5.38359 23.3501 5.66185C24.2244 5.94011 25.0318 6.39582 25.7218 7.00048C26.4119 7.60513 26.9697 8.3457 27.3603 9.17585C27.751 10.006 27.9661 10.9078 27.9922 11.8249C28.0183 12.742 27.8548 13.6546 27.5119 14.5057C27.1691 15.3567 26.6543 16.1278 25.9998 16.7707" stroke-width="2" stroke-linecap="round" stroke-linejoin="round"/>
</symbol>
<symbol id="icon-search" viewBox="0 0 32 32">
  <path d="M21 21L15 15M3 10C3 10.9193 3.18106 11.8295 3.53284 12.6788C3.88463 13.5281 4.40024 14.2997 5.05025 14.9497C5.70026 15.5998 6.47194 16.1154 7.32122 16.4672C8.1705 16.8189 9.08075 17 10 17C10.9193 17 11.8295 16.8189 12.6788 16.4672C13.5281 16.1154 14.2997 15.5998 14.9497 14.9497C15.5998 14.2997 16.1154 13.5281 16.4672 12.6788C16.8189 11.8295 17 10.9193 17 10C17 9.08075 16.8189 8.1705 16.4672 7.32122C16.1154 6.47194 15.5998 5.70026 14.9497 5.05025C14.2997 4.40024 13.5281 3.88463 12.6788 3.53284C11.8295 3.18106 10.9193 3 10 3C9.08075 3 8.1705 3.18106 7.32122 3.53284C6.47194 3.88463 5.70026 4.40024 5.05025 5.05025C4.40024 5.70026 3.88463 6.47194 3.53284 7.32122C3.18106 8.1705 3 9.08075 3 10Z" stroke="#100F0F" stroke-width="2" stroke-linecap="round" stroke-linejoin="round"/>
</symbol>
<symbol id="icon-telegram" viewBox="0 0 31 32">
  <path d="M20 13.8335L14.6667 19.1668L22.6667 27.1668L28 5.8335L4 15.1668L9.33333 17.8335L12 25.8335L16 20.5002" stroke="#100F0F" stroke-width="2" stroke-linecap="round" stroke-linejoin="round"/>
</symbol>


<symbol id="icon-calendar" width="42" height="42" viewBox="0 0 42 42" fill="none">
  <path d="M20.6412 36.75H8.75C7.82174 36.75 6.9315 36.3812 6.27513 35.7249C5.61875 35.0685 5.25 34.1783 5.25 33.25V12.25C5.25 11.3217 5.61875 10.4315 6.27513 9.77513C6.9315 9.11875 7.82174 8.75 8.75 8.75H29.75C30.6783 8.75 31.5685 9.11875 32.2249 9.77513C32.8812 10.4315 33.25 11.3217 33.25 12.25V19.25" stroke="#100F0F" stroke-width="2" stroke-linecap="round" stroke-linejoin="round"/>
  <path d="M26.25 5.25V12.25M12.25 5.25V12.25M5.25 19.25H33.25M24.5 31.5C24.5 33.3565 25.2375 35.137 26.5502 36.4497C27.863 37.7625 29.6435 38.5 31.5 38.5C33.3565 38.5 35.137 37.7625 36.4497 36.4497C37.7625 35.137 38.5 33.3565 38.5 31.5C38.5 29.6435 37.7625 27.863 36.4497 26.5502C35.137 25.2375 33.3565 24.5 31.5 24.5C29.6435 24.5 27.863 25.2375 26.5502 26.5502C25.2375 27.863 24.5 29.6435 24.5 31.5Z" stroke="#100F0F" stroke-width="2" stroke-linecap="round" stroke-linejoin="round"/>
  <path d="M31.5 28.8682V31.5002L33.25 33.2502" stroke="#100F0F" stroke-width="2" stroke-linecap="round" stroke-linejoin="round"/>
</symbol>

<symbol id="icon-scooter" width="42" height="42" viewBox="0 0 42 42" fill="none">
  <path d="M8.75 14H15.75M17.5 28C17.5 28.6894 17.3642 29.3721 17.1004 30.0091C16.8365 30.646 16.4498 31.2248 15.9623 31.7123C15.4748 32.1998 14.896 32.5865 14.2591 32.8504C13.6221 33.1142 12.9394 33.25 12.25 33.25C11.5606 33.25 10.8779 33.1142 10.2409 32.8504C9.60395 32.5865 9.0252 32.1998 8.53769 31.7123C8.05018 31.2248 7.66347 30.646 7.39963 30.0091C7.1358 29.3721 7 28.6894 7 28M3.5 28C3.5 22.4315 7.41825 19.25 12.25 19.25C17.0817 19.25 21 22.4315 21 28H3.5Z" stroke="#100F0F" stroke-width="2" stroke-linecap="round" stroke-linejoin="round"/>
  <path d="M35 33.25C36.933 33.25 38.5 31.683 38.5 29.75C38.5 27.817 36.933 26.25 35 26.25C33.067 26.25 31.5 27.817 31.5 29.75C31.5 31.683 33.067 33.25 35 33.25Z" stroke="#100F0F" stroke-width="2" stroke-linecap="round" stroke-linejoin="round"/>
  <path d="M28 14C30.3327 15.1165 35 19.5545 35 26.25M27.9825 8.75H28.9398C30.6618 8.75 32.2438 9.765 33.0418 11.3802C33.593 12.5002 33.0418 14 31.4738 14H27.9825M27.9825 8.75V14M27.9825 8.75H22.652M27.9825 14C27.9825 17.3477 27.6115 28 21 28H30.9155" stroke="#100F0F" stroke-width="2" stroke-linecap="round" stroke-linejoin="round"/>
</symbol>



  </defs>
</svg>

