<svg aria-hidden="true" style="position: absolute; width: 0; height: 0; overflow: hidden;" version="1.1" xmlns="http://www.w3.org/2000/svg" xmlns:xlink="http://www.w3.org/1999/xlink">
<defs>
<symbol id="icon-accordeon-statusMinus" viewBox="0 0 32 32">
<path d="M24 17.331h-16c-0.354 0-0.693-0.141-0.943-0.391s-0.391-0.589-0.391-0.943c0-0.354 0.14-0.693 0.391-0.943s0.589-0.391 0.943-0.391h16c0.354 0 0.693 0.14 0.943 0.391s0.391 0.589 0.391 0.943-0.141 0.693-0.391 0.943c-0.25 0.25-0.589 0.391-0.943 0.391z"></path>
</symbol>
<symbol id="icon-accordeon-statusPlus" viewBox="0 0 32 32">
<path d="M24 17.331h-6.667v6.667c0 0.354-0.141 0.693-0.391 0.943s-0.589 0.391-0.943 0.391c-0.354 0-0.693-0.141-0.943-0.391s-0.391-0.589-0.391-0.943v-6.667h-6.667c-0.354 0-0.693-0.141-0.943-0.391s-0.391-0.589-0.391-0.943c0-0.354 0.14-0.693 0.391-0.943s0.589-0.391 0.943-0.391h6.667v-6.667c0-0.354 0.141-0.693 0.391-0.943s0.589-0.391 0.943-0.391c0.354 0 0.693 0.14 0.943 0.391s0.391 0.589 0.391 0.943v6.667h6.667c0.354 0 0.693 0.14 0.943 0.391s0.391 0.589 0.391 0.943-0.141 0.693-0.391 0.943c-0.25 0.25-0.589 0.391-0.943 0.391z"></path>
</symbol>
<symbol id="icon-added-to-busket" viewBox="0 0 32 32">
<path stroke-linejoin="round" stroke-linecap="round" stroke-miterlimit="4" stroke-width="1.5" d="M15.053 26h-1.306c-2.224 0-3.337 0-4.108-0.671-0.772-0.67-0.961-1.8-1.339-4.061l-1.141-6.82c-0.172-1.031-0.259-1.546 0.018-1.884s0.783-0.338 1.798-0.338h14.047c1.015 0 1.522 0 1.798 0.338s0.189 0.853 0.018 1.885l-0.503 3.001M17.421 24.1c0 0 0.71 0.594 1.895 1.9 0 0 3.434-3.444 5.684-5.7M21.211 12.225c0-1.386-0.549-2.715-1.526-3.695s-2.303-1.53-3.684-1.53-2.707 0.551-3.684 1.53c-0.977 0.98-1.526 2.309-1.526 3.695"></path>
</symbol>
<symbol id="icon-added-to-liked" viewBox="0 0 32 32">
<path fill="none" stroke="#282828" style="stroke: var(--color1, #282828)" stroke-linejoin="round" stroke-linecap="round" stroke-miterlimit="4" stroke-width="1.5" d="M16.063 25.456l-9.384-8.501c-5.1-5.1 2.397-14.894 9.384-6.97 6.987-7.923 14.451 1.903 9.386 6.97l-9.386 8.501z"></path>
<path fill="#f880c8" style="fill: var(--color2, #f880c8)" d="M22.75 5.25c2.209 0 4 1.791 4 4s-1.791 4-4 4c-2.209 0-4-1.791-4-4s1.791-4 4-4z"></path>
<path fill="none" stroke="#fff" style="stroke: var(--color3, #fff)" stroke-linejoin="miter" stroke-linecap="butt" stroke-miterlimit="4" stroke-width="1" d="M22.75 5.25c2.209 0 4 1.791 4 4s-1.791 4-4 4c-2.209 0-4-1.791-4-4s1.791-4 4-4z"></path>
<path fill="#fff" style="fill: var(--color3, #fff)" d="M23.77 12.25h-1.207v-3.305l0.012-0.539 0.020-0.598c-0.201 0.201-0.34 0.332-0.418 0.395l-0.656 0.527-0.582-0.727 1.84-1.465h0.992v5.711z"></path>
</symbol>
<symbol id="icon-burger" viewBox="0 0 32 32">
<path stroke-linejoin="round" stroke-linecap="round" stroke-miterlimit="4" stroke-width="2.5" d="M7 10h18M7 16h18M7 22h18"></path>
</symbol>
<symbol id="icon-busket" viewBox="0 0 32 32">
<path stroke-linejoin="round" stroke-linecap="round" stroke-miterlimit="4" stroke-width="1.5" d="M7.373 21.020l-1.204-7.18c-0.182-1.086-0.273-1.628 0.019-1.984s0.827-0.356 1.898-0.356h14.828c1.071 0 1.607 0 1.898 0.356 0.292 0.356 0.2 0.898 0.019 1.984l-1.204 7.18c-0.399 2.38-0.598 3.569-1.413 4.275-0.814 0.705-1.988 0.705-4.336 0.705h-4.756c-2.348 0-3.522 0-4.336-0.706-0.815-0.705-1.014-1.895-1.413-4.275M21 11.5c0-1.459-0.579-2.858-1.611-3.889s-2.43-1.611-3.889-1.611-2.858 0.579-3.889 1.611c-1.031 1.031-1.611 2.43-1.611 3.889"></path>
</symbol>
<symbol id="icon-check-mark" viewBox="0 0 32 32">
<path stroke-linejoin="round" stroke-linecap="round" stroke-miterlimit="4" stroke-width="2" d="M23.5 10l-10.5 12-4.5-4.5"></path>
</symbol>
<symbol id="icon-cross" viewBox="0 0 32 32">
<path d="M23.766 22.634c0.074 0.074 0.133 0.163 0.174 0.26s0.061 0.201 0.061 0.306-0.021 0.209-0.061 0.306c-0.040 0.097-0.099 0.185-0.174 0.26s-0.163 0.133-0.26 0.174c-0.097 0.040-0.201 0.061-0.306 0.061s-0.209-0.021-0.306-0.061c-0.097-0.040-0.185-0.099-0.26-0.174l-6.634-6.635-6.634 6.635c-0.15 0.15-0.354 0.234-0.566 0.234s-0.416-0.084-0.566-0.234c-0.15-0.15-0.234-0.354-0.234-0.566s0.084-0.416 0.234-0.566l6.635-6.634-6.635-6.634c-0.15-0.15-0.234-0.354-0.234-0.566s0.084-0.416 0.234-0.566c0.15-0.15 0.354-0.234 0.566-0.234s0.416 0.084 0.566 0.234l6.634 6.635 6.634-6.635c0.15-0.15 0.354-0.234 0.566-0.234s0.416 0.084 0.566 0.234c0.15 0.15 0.234 0.354 0.234 0.566s-0.084 0.416-0.234 0.566l-6.635 6.634 6.635 6.634z"></path>
</symbol>
<symbol id="icon-heart" viewBox="0 0 32 32">
<path stroke-linejoin="round" stroke-linecap="round" stroke-miterlimit="4" stroke-width="1.5" d="M16.006 24l-8.487-7.37c-4.612-4.421 2.167-12.912 8.487-6.043 6.319-6.869 13.070 1.65 8.488 6.043l-8.488 7.37z"></path>
</symbol>
<symbol id="icon-instagram" viewBox="0 0 32 32">
<path stroke-linejoin="round" stroke-linecap="round" stroke-miterlimit="4" stroke-width="1.2" d="M8 16.25c0-3.889 0-5.834 1.208-7.042s3.152-1.208 7.042-1.208c3.889 0 5.834 0 7.042 1.208s1.208 3.152 1.208 7.042c0 3.889 0 5.834-1.208 7.042s-3.152 1.208-7.042 1.208c-3.889 0-5.834 0-7.042-1.208s-1.208-3.152-1.208-7.042z"></path>
<path stroke-linejoin="round" stroke-linecap="round" stroke-miterlimit="4" stroke-width="1.2" d="M21.191 11.474h-0.009M20.316 16.25c0 1.036-0.412 2.030-1.145 2.763s-1.727 1.145-2.763 1.145c-1.036 0-2.030-0.412-2.763-1.145s-1.145-1.727-1.145-2.763c0-1.036 0.412-2.030 1.145-2.763s1.727-1.145 2.763-1.145c1.036 0 2.030 0.412 2.763 1.145s1.145 1.727 1.145 2.763z"></path>
</symbol>
<symbol id="icon-telegram" viewBox="0 0 32 32">
<path d="M26.419 6.374c-0.226-0.187-0.498-0.31-0.788-0.355s-0.587-0.011-0.859 0.099l-18.77 7.577c-0.303 0.125-0.562 0.339-0.74 0.614s-0.27 0.598-0.261 0.925 0.117 0.645 0.311 0.91c0.193 0.265 0.463 0.465 0.772 0.573l4.050 1.406 2.195 7.256c0.004 0.015 0.018 0.024 0.024 0.038 0.023 0.058 0.056 0.111 0.098 0.157 0.063 0.071 0.145 0.123 0.237 0.15 0.011 0.004 0.018 0.014 0.028 0.016h0.006l0.003 0.001c0.081 0.017 0.165 0.013 0.244-0.013 0.008-0.002 0.017-0.002 0.026-0.005 0.076-0.027 0.144-0.070 0.2-0.128 0.006-0.007 0.017-0.008 0.023-0.015l3.157-3.484 4.606 3.567c0.28 0.219 0.624 0.337 0.98 0.337 0.769 0 1.432-0.538 1.59-1.29l3.417-16.781c0.058-0.285 0.038-0.58-0.059-0.854s-0.266-0.517-0.49-0.702zM13.474 19.501l-0.741 3.601-1.545-5.11 7.663-3.991-5.235 5.236c-0.072 0.072-0.122 0.165-0.142 0.265zM22.524 24.5c-0.020 0.095-0.063 0.183-0.127 0.257s-0.145 0.129-0.236 0.161c-0.089 0.034-0.186 0.045-0.28 0.030s-0.183-0.053-0.258-0.112l-4.99-3.865c-0.104-0.081-0.235-0.119-0.366-0.107s-0.253 0.072-0.342 0.17l-2.197 2.421 0.74-3.59 7.531-7.532c0.088-0.088 0.142-0.206 0.151-0.33s-0.026-0.248-0.1-0.349c-0.074-0.101-0.181-0.172-0.303-0.2s-0.249-0.013-0.36 0.045l-10.856 5.655-4.103-1.427c-0.109-0.036-0.204-0.105-0.271-0.197s-0.105-0.204-0.107-0.318c-0.005-0.116 0.026-0.23 0.088-0.327s0.154-0.172 0.262-0.216l18.767-7.577c0.096-0.041 0.202-0.054 0.305-0.038s0.2 0.060 0.279 0.128c0.079 0.064 0.139 0.148 0.172 0.244s0.040 0.199 0.018 0.298l-3.416 16.776z"></path>
</symbol>
<symbol id="icon-remove-from-busket" viewBox="0 0 32 32">
<path stroke-linejoin="round" stroke-linecap="round" stroke-miterlimit="4" stroke-width="1.5" d="M24.497 16.5l0.343-2.052c0.172-1.032 0.259-1.547-0.018-1.885-0.276-0.338-0.783-0.338-1.798-0.338h-14.047c-1.015 0-1.522 0-1.798 0.338s-0.189 0.853-0.018 1.885l1.141 6.821c0.378 2.261 0.567 3.39 1.339 4.061s1.883 0.67 4.108 0.67h1.779M18.368 19.35l3.316 3.325M21.684 22.675l3.316 3.325M21.684 22.675l-3.316 3.325M21.684 22.675l3.316-3.325M21.21 12.225c0-1.386-0.549-2.715-1.526-3.695s-2.303-1.53-3.684-1.53c-1.382 0-2.707 0.551-3.684 1.53s-1.526 2.309-1.526 3.695"></path>
</symbol>
<symbol id="icon-search" viewBox="0 0 32 32">
<path stroke-linejoin="round" stroke-linecap="round" stroke-miterlimit="4" stroke-width="1.5" d="M20.893 20.92l3.080 3.080M23.084 15.581c0 4.187-3.383 7.581-7.555 7.581s-7.556-3.394-7.556-7.58c0-4.189 3.383-7.582 7.555-7.582 4.173 0 7.556 3.394 7.556 7.581z"></path>
</symbol>

</defs>
</svg>
