<svg aria-hidden="true" style="position:absolute;width:0;height:0;overflow:hidden" xmlns="http://www.w3.org/2000/svg">
  <defs>
    <symbol id="icon-easy-order" viewBox="0 0 32 32">
      <path fill="none" stroke="#f880c8" style="stroke:var(--color1, #f880c8)" stroke-linejoin="round" stroke-linecap="round" stroke-width="1.548" d="M19.016 4.8C17.595 3.376 16.883 2.667 16 2.667s-1.595.711-3.016 2.133c-.853.853-1.699 1.248-2.915 1.248-1.061 0-2.573-.205-3.403.631-.824.831-.619 2.336-.619 3.391 0 1.216-.396 2.061-1.249 2.915-1.421 1.421-2.132 2.133-2.132 3.016s.711 1.595 2.133 3.016c.955.956 1.248 1.573 1.248 2.915 0 1.061-.205 2.573.631 3.403.831.823 2.336.619 3.391.619 1.295 0 1.92.253 2.844 1.177.787.787 1.841 2.204 3.087 2.204s2.3-1.417 3.087-2.204c.925-.924 1.549-1.177 2.844-1.177 1.055 0 2.56.205 3.391-.619m0-.002c.836-.829.631-2.341.631-3.403 0-1.341.293-1.959 1.248-2.915 1.423-1.421 2.133-2.133 2.133-3.016s-.711-1.595-2.132-3.016m-1.88 12.35h.012"/>
      <path fill="none" stroke="#f880c8" style="stroke:var(--color1, #f880c8)" stroke-linejoin="round" stroke-linecap="round" stroke-width="1.548" d="m11.334 12.667 4.667 4.667 12-13.333"/>
    </symbol>
    <symbol id="icon-fast-delivery" viewBox="0 0 33 32">
      <path fill="none" stroke="#f880c8" style="stroke:var(--color1, #f880c8)" stroke-linejoin="round" stroke-linecap="round" stroke-width="1.548" d="M6.925 10.667h5.333m1.334 10.666c0 .525-.103 1.045-.305 1.531s-.496.926-.867 1.298a3.996 3.996 0 0 1-2.829 1.171 4.005 4.005 0 0 1-2.829-1.171 3.996 3.996 0 0 1-1.171-2.829m-2.666 0c0-4.243 2.985-6.667 6.667-6.667s6.667 2.424 6.667 6.667H2.926zM26.925 25.333a2.667 2.667 0 1 0 0-5.334 2.667 2.667 0 0 0 0 5.334z"/>
      <path fill="none" stroke="#f880c8" style="stroke:var(--color1, #f880c8)" stroke-linejoin="round" stroke-linecap="round" stroke-width="1.548" d="M21.591 10.667c1.777.851 5.333 4.232 5.333 9.333M21.578 6.667h.729c1.312 0 2.517.773 3.125 2.004.42.853 0 1.996-1.195 1.996h-2.66m.001-4v4m0-4h-4.061m4.061 4c0 2.551-.283 10.667-5.32 10.667h7.555"/>
    </symbol>
    <symbol id="icon-premium-quality" viewBox="0 0 32 32">
      <path fill="none" stroke="#f880c8" style="stroke:var(--color1, #f880c8)" stroke-linejoin="round" stroke-linecap="round" stroke-width="1.548" d="M5.333 18.667h3.193c.392 0 .779.088 1.129.259l2.723 1.317c.351.169.737.257 1.131.257h1.389c1.344 0 2.435 1.055 2.435 2.356a.117.117 0 0 1-.088.113l-3.388.937a2.602 2.602 0 0 1-1.824-.165l-2.911-1.408m2.072-18.93c1.965-1.219 3.683-.728 4.713.055.423.32.635.48.759.48s.336-.16.759-.48c1.031-.783 2.747-1.273 4.713-.055 2.581 1.6 3.165 6.875-2.787 11.325C18.216 15.576 17.65 16 16.666 16s-1.551-.424-2.684-1.272c-5.953-4.451-5.369-9.727-2.788-11.325z"/>
      <path fill="none" stroke="#f880c8" style="stroke:var(--color1, #f880c8)" stroke-linejoin="round" stroke-linecap="round" stroke-width="1.548" d="m17.333 22 6.124-1.881c.533-.164 1.104-.155 1.632.026s.985.523 1.307.978c.492.68.292 1.656-.425 2.069l-10.02 5.783a2.67 2.67 0 0 1-2.091.25l-8.527-2.531"/>
    </symbol>
    <symbol id="icon-your-own-design" viewBox="0 0 32 32">
      <path fill="none" stroke="#f880c8" style="stroke:var(--color1, #f880c8)" stroke-linejoin="round" stroke-linecap="round" stroke-width="1.548" d="m18.568 17.037-2.865-2.865c-.389-.391-.585-.585-.796-.689a1.433 1.433 0 0 0-1.272 0c-.211.104-.405.299-.796.689s-.585.587-.689.796c-.2.401-.2.872 0 1.272.104.211.299.407.689.797l2.865 2.864m2.864-2.864 8.593 8.593c.391.389.585.585.689.796.2.4.2.871 0 1.272-.104.209-.299.405-.689.796s-.587.585-.796.689c-.401.2-.872.2-1.272 0-.211-.104-.407-.299-.797-.689l-8.592-8.593m2.864-2.864-2.864 2.864m6.963-17.234.393 1.063c.515 1.392.773 2.088 1.28 2.596.509.508 1.205.767 2.597 1.281L28 8l-1.063.393c-1.392.515-2.088.773-2.596 1.28-.508.509-.767 1.205-1.281 2.597l-.393 1.063-.393-1.063c-.515-1.392-.773-2.088-1.28-2.596-.509-.508-1.205-.767-2.597-1.281L17.334 8l1.063-.393c1.392-.515 2.088-.773 2.596-1.28.508-.509.767-1.205 1.281-2.597l.393-1.063zM8 5.333l.295.796c.387 1.045.58 1.568.96 1.948.381.381.904.575 1.949.96l.796.296-.796.295c-1.045.387-1.568.58-1.948.96-.381.381-.575.904-.96 1.949L8 13.333l-.295-.796c-.387-1.045-.58-1.568-.96-1.948-.381-.381-.904-.575-1.949-.96L4 9.333l.796-.295c1.045-.387 1.568-.58 1.948-.96.381-.381.575-.904.96-1.949L8 5.333z"/>
    </symbol>
    <symbol id="icon-basket" viewBox="0 0 32 32">
      <path stroke-linejoin="round" stroke-linecap="round" stroke-width="2" d="M4.498 22.693 2.893 13.12c-.243-1.448-.364-2.171.025-2.645C3.306 10 4.021 10 5.449 10H25.22c1.428 0 2.143 0 2.531.475.389.475.267 1.197.025 2.645l-1.605 9.573c-.532 3.173-.797 4.759-1.884 5.7-1.085.94-2.651.94-5.781.94h-6.341c-3.131 0-4.696 0-5.781-.941-1.087-.94-1.352-2.527-1.884-5.7M22.667 10A7.333 7.333 0 0 0 8 10"/>
    </symbol>
    <symbol id="icon-basket-done" viewBox="0 0 32 32">
      <path stroke-linejoin="round" stroke-linecap="round" stroke-width="2" d="M14.737 29.333h-1.741c-2.966 0-4.449 0-5.477-.894-1.029-.893-1.281-2.4-1.785-5.415l-1.521-9.093c-.23-1.374-.345-2.061.024-2.512.368-.451 1.045-.451 2.397-.451h18.73c1.353 0 2.03 0 2.397.451.369.451.253 1.137.024 2.513l-.671 4.001M17.895 26.8s.947.792 2.526 2.533l7.579-7.6m-5.053-10.766c0-1.848-.732-3.62-2.035-4.926S17.842 4 15.999 4s-3.61.734-4.912 2.041a6.976 6.976 0 0 0-2.035 4.926"/>
    </symbol>
    <symbol id="icon-basket-remove" viewBox="0 0 32 32">
      <path stroke-linejoin="round" stroke-linecap="round" stroke-width="2" d="m27.329 16.667.457-2.736c.23-1.376.345-2.062-.024-2.513-.367-.451-1.045-.451-2.397-.451H6.635c-1.353 0-2.03 0-2.397.451-.369.451-.253 1.137-.024 2.513l1.521 9.095c.504 3.015.755 4.521 1.785 5.415 1.028.893 2.511.893 5.477.893h2.372m3.789-8.867 4.421 4.433m0 0L28 29.333M23.579 24.9l-4.421 4.433m4.421-4.433L28 20.467m-5.053-9.5c0-1.848-.732-3.62-2.035-4.926S17.842 4 15.999 4c-1.843 0-3.61.734-4.912 2.041S9.052 9.12 9.052 10.967"/>
    </symbol>
    <symbol id="icon-burger-menu" viewBox="0 0 32 32">
      <path stroke-linejoin="round" stroke-linecap="round" stroke-width="3.333" d="M4 8h24M4 16h24M4 24h24"/>
    </symbol>
    <symbol id="icon-checkmark" viewBox="0 0 32 32">
      <path stroke-linejoin="round" stroke-linecap="round" stroke-width="2.667" d="M26 8 12 24l-6-6"/>
    </symbol>
    <symbol id="icon-cross" viewBox="0 0 32 32">
      <path d="M26.354 24.845a1.06 1.06 0 0 1 .312.754 1.076 1.076 0 0 1-.312.754 1.06 1.06 0 0 1-.754.312 1.076 1.076 0 0 1-.754-.312l-8.845-8.846-8.845 8.846a1.069 1.069 0 0 1-1.51-1.51l8.846-8.845-8.846-8.845a1.069 1.069 0 0 1 1.51-1.51l8.845 8.846 8.845-8.846a1.069 1.069 0 0 1 1.51 1.51l-8.846 8.845 8.846 8.845z"/>
    </symbol>
    <symbol id="icon-fullheart" viewBox="0 0 32 32">
      <path stroke-linejoin="round" stroke-linecap="round" stroke-width="2" d="M16.085 28.608 3.573 17.273c-6.8-6.8 3.195-19.858 12.512-9.294 9.317-10.565 19.269 2.537 12.514 9.294L16.085 28.608z"/>
    </symbol>
    <symbol id="icon-heart" viewBox="0 0 32 32">
      <path stroke-linejoin="round" stroke-linecap="round" stroke-width="2" d="M16.008 26.667 4.692 16.84c-6.15-5.895 2.89-17.216 11.316-8.057 8.426-9.159 17.426 2.2 11.318 8.057l-11.318 9.827z"/>
    </symbol>
    <symbol id="icon-instagram" viewBox="0 0 32 32">
      <path stroke-linejoin="round" stroke-linecap="round" stroke-width="1.6" d="M5.333 16.333c0-5.185 0-7.779 1.611-9.389s4.203-1.611 9.389-1.611c5.185 0 7.779 0 9.389 1.611s1.611 4.203 1.611 9.389c0 5.185 0 7.779-1.611 9.389s-4.203 1.611-9.389 1.611c-5.185 0-7.779 0-9.389-1.611s-1.611-4.203-1.611-9.389z"/>
      <path stroke-linejoin="round" stroke-linecap="round" stroke-width="1.6" d="M22.922 9.965h-.012m-1.156 6.368a5.21 5.21 0 1 1-10.42 0 5.21 5.21 0 0 1 10.42 0z"/>
    </symbol>
    <symbol id="icon-minus" viewBox="0 0 32 32">
      <path d="M24 17.331H8a1.335 1.335 0 0 1-.943-2.277c.251-.25.589-.391.943-.391h16a1.335 1.335 0 0 1 .943 2.277c-.251.25-.589.391-.943.391z"/>
    </symbol>
    <symbol id="icon-plus" viewBox="0 0 32 32">
      <path d="M24 17.331h-6.667v6.667a1.335 1.335 0 0 1-2.277.943 1.335 1.335 0 0 1-.391-.943v-6.667H7.998a1.335 1.335 0 0 1-.943-2.277c.251-.25.589-.391.943-.391h6.667V7.996a1.335 1.335 0 0 1 2.277-.943c.25.251.391.589.391.943v6.667H24a1.335 1.335 0 0 1 .943 2.277c-.251.25-.589.391-.943.391z"/>
    </symbol>
    <symbol id="icon-search" viewBox="0 0 32 32">
      <path stroke-linejoin="round" stroke-linecap="round" stroke-width="2" d="m22.524 22.56 4.107 4.107m-1.186-11.226c0 5.583-4.511 10.108-10.073 10.108-5.564 0-10.075-4.525-10.075-10.107 0-5.585 4.511-10.109 10.073-10.109 5.564 0 10.075 4.525 10.075 10.108z"/>
    </symbol>
    <symbol id="icon-telegram" viewBox="0 0 32 32">
      <path d="M29.892 3.165a2.162 2.162 0 0 0-2.196-.341L2.669 12.927a2.15 2.15 0 0 0-1.335 2.052 2.155 2.155 0 0 0 1.444 1.976l5.4 1.875 2.926 9.674c.006.019.024.032.032.05a.682.682 0 0 0 .446.409c.014.006.024.018.038.021h.008l.004.001a.63.63 0 0 0 .325-.017c.011-.003.022-.003.035-.007a.697.697 0 0 0 .267-.17c.008-.01.022-.011.031-.02l4.209-4.646 6.142 4.756c.373.292.833.45 1.306.45a2.167 2.167 0 0 0 2.12-1.719l4.556-22.374a2.142 2.142 0 0 0-.732-2.076zM12.631 20.667l-.988 4.801-2.06-6.814 10.218-5.322-6.98 6.981a.691.691 0 0 0-.19.353zm12.067 6.666a.755.755 0 0 1-.484.557.73.73 0 0 1-.718-.109l-6.653-5.153a.703.703 0 0 0-.945.084l-2.929 3.228.986-4.787L23.997 11.11a.698.698 0 0 0-.816-1.113l-14.475 7.54-5.471-1.902a.735.735 0 0 1-.504-.687.738.738 0 0 1 .467-.723L28.22 4.122a.755.755 0 0 1 .78.12.733.733 0 0 1 .255.724L24.7 27.335z"/>
    </symbol>
  </defs>
</svg>
