<svg aria-hidden="true" style="position: absolute; width: 0; height: 0; overflow: hidden;" version="1.1" xmlns="http://www.w3.org/2000/svg" xmlns:xlink="http://www.w3.org/1999/xlink">
<defs>
<symbol id="icon-login" viewBox="0 0 31 32">
<path d="M13.184 10.496c-0.119 0.117-0.213 0.257-0.277 0.41s-0.097 0.319-0.097 0.486c0 0.167 0.033 0.332 0.097 0.486s0.158 0.293 0.277 0.41l2.432 2.432h-11.776c-0.704 0-1.28 0.576-1.28 1.28s0.576 1.28 1.28 1.28h11.776l-2.432 2.432c-0.119 0.117-0.213 0.257-0.277 0.41s-0.097 0.319-0.097 0.485 0.033 0.332 0.097 0.485c0.064 0.154 0.158 0.293 0.277 0.41 0.499 0.499 1.293 0.499 1.792 0l4.595-4.595c0.119-0.118 0.213-0.259 0.277-0.414s0.097-0.321 0.097-0.488-0.033-0.334-0.097-0.488c-0.064-0.155-0.158-0.296-0.277-0.414l-4.595-4.608c-0.117-0.119-0.257-0.213-0.411-0.277s-0.319-0.097-0.486-0.097-0.332 0.033-0.486 0.097c-0.154 0.064-0.293 0.158-0.411 0.277zM25.6 24.96h-8.96c-0.704 0-1.28 0.576-1.28 1.28s0.576 1.28 1.28 1.28h8.96c1.408 0 2.56-1.152 2.56-2.56v-17.92c0-1.408-1.152-2.56-2.56-2.56h-8.96c-0.704 0-1.28 0.576-1.28 1.28s0.576 1.28 1.28 1.28h8.96v17.92z"></path>
</symbol>
</defs>
</svg>
